ffmpeg version 2.8.15-0ubuntu0.16.04.1 Copyright (c) 2000-2018 the FFmpeg developers
  built with gcc 5.4.0 (Ubuntu 5.4.0-6ubuntu1~16.04.10) 20160609
  configuration: --prefix=/usr --extra-version=0ubuntu0.16.04.1 --build-suffix=-ffmpeg --toolchain=hardened --libdir=/usr/lib/x86_64-linux-gnu --incdir=/usr/include/x86_64-linux-gnu --cc=cc --cxx=g++ --enable-gpl --enable-shared --disable-stripping --disable-decoder=libopenjpeg --disable-decoder=libschroedinger --enable-avresample --enable-avisynth --enable-gnutls --enable-ladspa --enable-libass --enable-libbluray --enable-libbs2b --enable-libcaca --enable-libcdio --enable-libflite --enable-libfontconfig --enable-libfreetype --enable-libfribidi --enable-libgme --enable-libgsm --enable-libmodplug --enable-libmp3lame --enable-libopenjpeg --enable-libopus --enable-libpulse --enable-librtmp --enable-libschroedinger --enable-libshine --enable-libsnappy --enable-libsoxr --enable-libspeex --enable-libssh --enable-libtheora --enable-libtwolame --enable-libvorbis --enable-libvpx --enable-libwavpack --enable-libwebp --enable-libx265 --enable-libxvid --enable-libzvbi --enable-openal --enable-opengl --enable-x11grab --enable-libdc1394 --enable-libiec61883 --enable-libzmq --enable-frei0r --enable-libx264 --enable-libopencv
  libavutil      54. 31.100 / 54. 31.100
  libavcodec     56. 60.100 / 56. 60.100
  libavformat    56. 40.101 / 56. 40.101
  libavdevice    56.  4.100 / 56.  4.100
  libavfilter     5. 40.101 /  5. 40.101
  libavresample   2.  1.  0 /  2.  1.  0
  libswscale      3.  1.101 /  3.  1.101
  libswresample   1.  2.101 /  1.  2.101
  libpostproc    53.  3.100 / 53.  3.100
Input #0, image2pipe, from 'pipe:':
  Duration: N/A, bitrate: N/A
    Stream #0:0: Video: ppm, rgb24, 512x512, 12 fps, 12 tbr, 12 tbn, 12 tbc
[libx264 @ 0x1953c00] using cpu capabilities: MMX2 SSE2Fast SSSE3 SSE4.2 AVX
[libx264 @ 0x1953c00] profile High, level 2.2
[libx264 @ 0x1953c00] 264 - core 148 r2643 5c65704 - H.264/MPEG-4 AVC codec - Copyleft 2003-2015 - http://www.videolan.org/x264.html - options: cabac=1 ref=3 deblock=1:0:0 analyse=0x3:0x113 me=hex subme=7 psy=1 psy_rd=1.00:0.00 mixed_ref=1 me_range=16 chroma_me=1 trellis=1 8x8dct=1 cqm=0 deadzone=21,11 fast_pskip=1 chroma_qp_offset=-2 threads=12 lookahead_threads=2 sliced_threads=0 nr=0 decimate=1 interlaced=0 bluray_compat=0 constrained_intra=0 bframes=3 b_pyramid=2 b_adapt=1 b_bias=0 direct=1 weightb=1 open_gop=0 weightp=2 keyint=250 keyint_min=12 scenecut=40 intra_refresh=0 rc_lookahead=40 rc=abr mbtree=1 bitrate=400 ratetol=1.0 qcomp=0.60 qpmin=0 qpmax=69 qpstep=4 ip_ratio=1.40 aq=1:1.00
Output #0, mp4, to './mission_records/20d24621-9f63-486b-a548-e2def366054f/video.mp4':
  Metadata:
    encoder         : Lavf56.40.101
    Stream #0:0: Video: h264 (libx264) ([33][0][0][0] / 0x0021), yuv420p, 512x512, q=-1--1, 400 kb/s, 12 fps, 12288 tbn, 12 tbc
    Metadata:
      encoder         : Lavc56.60.100 libx264
Stream mapping:
  Stream #0:0 -> #0:0 (ppm (native) -> h264 (libx264))
frame=   14 fps=0.0 q=0.0 size=       0kB time=00:00:00.00 bitrate=N/A    frame=   20 fps= 18 q=0.0 size=       0kB time=00:00:00.00 bitrate=N/A    frame=   26 fps= 15 q=0.0 size=       0kB time=00:00:00.00 bitrate=N/A    frame=   32 fps= 14 q=0.0 size=       0kB time=00:00:00.00 bitrate=N/A    frame=   38 fps= 13 q=0.0 size=       0kB time=00:00:00.00 bitrate=N/A    frame=   44 fps= 13 q=0.0 size=       0kB time=00:00:00.00 bitrate=N/A    frame=   50 fps= 13 q=0.0 size=       0kB time=00:00:00.00 bitrate=N/A    frame=   56 fps= 12 q=0.0 size=       0kB time=00:00:00.00 bitrate=N/A    frame=   62 fps= 12 q=41.0 size=      73kB time=00:00:00.33 bitrate=1787.0kbits/s    frame=   68 fps= 12 q=38.0 size=      93kB time=00:00:00.83 bitrate= 914.3kbits/s    frame=   74 fps= 12 q=37.0 size=     139kB time=00:00:01.33 bitrate= 854.1kbits/s    frame=   80 fps= 12 q=39.0 size=     143kB time=00:00:01.83 bitrate= 639.9kbits/s    av_interleaved_write_frame(): Immediate exit requested
frame=   80 fps= 11 q=-1.0 Lsize=     257kB time=00:00:06.08 bitrate= 346.4kbits/s    
video:262kB audio:0kB subtitle:0kB other streams:0kB global headers:0kB muxing overhead: unknown
[libx264 @ 0x1953c00] frame I:3     Avg QP:22.16  size: 19014
[libx264 @ 0x1953c00] frame P:37    Avg QP:24.39  size:  6600
[libx264 @ 0x1953c00] frame B:40    Avg QP:35.77  size:   118
[libx264 @ 0x1953c00] consecutive B-frames: 32.5%  0.0%  7.5% 60.0%
[libx264 @ 0x1953c00] mb I  I16..4:  7.6% 39.9% 52.5%
[libx264 @ 0x1953c00] mb P  I16..4:  3.7% 12.5%  9.7%  P16..4: 21.1% 10.8%  6.5%  0.0%  0.0%    skip:35.6%
[libx264 @ 0x1953c00] mb B  I16..4:  0.0%  0.0%  0.0%  B16..8:  8.1%  0.5%  0.2%  direct: 0.0%  skip:91.3%  L0:21.4% L1:77.6% BI: 1.0%
[libx264 @ 0x1953c00] final ratefactor: 25.66
[libx264 @ 0x1953c00] 8x8 transform intra:46.1% inter:47.4%
[libx264 @ 0x1953c00] coded y,uvDC,uvAC intra: 50.8% 70.5% 54.2% inter: 7.2% 8.5% 2.8%
[libx264 @ 0x1953c00] i16 v,h,dc,p: 32% 50% 12%  6%
[libx264 @ 0x1953c00] i8 v,h,dc,ddl,ddr,vr,hd,vl,hu: 33% 17% 28%  3%  3%  5%  4%  2%  4%
[libx264 @ 0x1953c00] i4 v,h,dc,ddl,ddr,vr,hd,vl,hu: 31% 31% 15%  3%  3%  4%  7%  2%  4%
[libx264 @ 0x1953c00] i8c dc,h,v,p: 54% 23% 19%  4%
[libx264 @ 0x1953c00] Weighted P-Frames: Y:2.7% UV:2.7%
[libx264 @ 0x1953c00] ref P L0: 82.5%  8.3%  7.3%  1.9%  0.1%
[libx264 @ 0x1953c00] ref B L0: 90.1%  9.1%  0.9%
[libx264 @ 0x1953c00] ref B L1: 88.8% 11.2%
[libx264 @ 0x1953c00] kb/s:367.16
Exiting normally, received signal 2.
